<svg width="192" height="299" viewBox="0 0 192 299" fill="none" xmlns="http://www.w3.org/2000/svg">
<path opacity="0.7" d="M109.577 81.7178V149.816" stroke="#A64CED" stroke-width="163.436" stroke-linecap="round"/>
<path d="M134.773 69.4601C132.73 77.6319 119.11 87.8466 108.896 87.8466" stroke="black" stroke-width="2.72393" stroke-linecap="round" stroke-linejoin="round"/>
<path d="M158.237 115.086C155.74 124.62 148.022 140.827 137.126 129.386C123.507 115.086 109.206 93.9755 94.9056 92.6135C80.605 91.2515 72.4334 96.0184 74.4761 101.466C75.8418 105.108 82.0773 105.504 88.0957 105.298M96.2674 104.871C94.0102 104.946 91.0797 105.196 88.0957 105.298M103.077 114.405C100.353 115.358 96.9485 115.393 94.9056 115.358M88.0957 105.298C77.881 106.914 79.243 115.086 94.9056 115.358M94.9056 115.358C85.3718 117.129 88.0957 123.939 96.2674 125.364M101.715 125.301C99.5749 125.678 97.7603 125.66 96.2674 125.364M96.2674 125.364C91.2415 128.663 92.6269 133.836 99.6724 134.464M105.12 134.153C103.037 134.521 101.218 134.602 99.6724 134.464M99.6724 134.464C115.335 168.202 152.108 181.822 178.666 155.945" stroke="black" stroke-width="2.72393" stroke-linecap="round"/>
<circle cx="88.4662" cy="64.6933" r="3.40491" fill="black"/>
<circle cx="117.068" cy="59.2454" r="3.40491" fill="black"/>
<path d="M106.853 228.81V322.785H49.6504L55.8951 317.321C58.8507 314.735 60.5461 310.999 60.5461 307.071V212.466" stroke="black" stroke-width="2.72393" stroke-linecap="round" stroke-linejoin="round"/>
<path d="M112.301 228.81V322.785H169.503L163.259 317.321C160.303 314.735 158.607 310.999 158.607 307.071V212.466" stroke="black" stroke-width="2.72393" stroke-linecap="round" stroke-linejoin="round"/>
<path d="M43.3292 69.871C41.811 78.0733 41.1817 86.3947 40.0227 94.6538" stroke="white" stroke-width="2.72393" stroke-miterlimit="1.5" stroke-linecap="round" stroke-linejoin="round"/>
<path d="M64.8329 61.2884C57.934 72.8082 52.1815 85.27 47.1018 97.6941" stroke="white" stroke-width="2.72393" stroke-miterlimit="1.5" stroke-linecap="round" stroke-linejoin="round"/>
<path d="M77.2103 81.2776C69.2878 85.9582 60.2362 95.877 53.4208 102.504" stroke="white" stroke-width="2.72393" stroke-miterlimit="1.5" stroke-linecap="round" stroke-linejoin="round"/>
<rect opacity="0.7" x="0.619629" y="108.38" width="50.3926" height="93.9755" rx="13.6196" transform="rotate(-15 0.619629 108.38)" fill="#2FDBBC"/>
<rect opacity="0.7" x="7.29199" y="112.232" width="14.1886" height="21.0342" rx="7.09432" transform="rotate(-15 7.29199 112.232)" fill="#2FDBBC"/>
<path d="M42.3689 139.961C40.8741 133.283 14.2394 132.713 6.06766 146.048C-2.10411 159.383 2.19055 179.966 15.8105 184.177C29.4305 188.388 45.7739 183.475 46.4549 177.159C46.9996 172.106 35.3498 172.718 29.221 172.718C36.0308 172.016 47.6075 172.246 46.4549 166.631C45.3022 161.017 32.1542 162.654 26.0254 163.122C33.2892 161.952 47.6075 161.488 46.4549 154.7C45.3022 147.912 31.4909 150.493 24.4541 151.663C32.1719 149.557 44.2026 148.153 42.3689 139.961Z" fill="#BE7FEF" stroke="black" stroke-width="2.72393" stroke-linecap="round" stroke-linejoin="round"/>
</svg>
